<svg id="visual" viewBox="0 0 1920 1080" width="1920" height="1080" xmlns="http://www.w3.org/2000/svg" xmlns:xlink="http://www.w3.org/1999/xlink" version="1.1"><rect x="0" y="0" width="1920" height="1080" fill="#180128"></rect><path d="M0 434L45.7 418.3C91.3 402.7 182.7 371.3 274.2 371.8C365.7 372.3 457.3 404.7 548.8 396.5C640.3 388.3 731.7 339.7 823 327.2C914.3 314.7 1005.7 338.3 1097 339.7C1188.3 341 1279.7 320 1371.2 317.2C1462.7 314.3 1554.3 329.7 1645.8 351.7C1737.3 373.7 1828.7 402.3 1874.3 416.7L1920 431L1920 0L1874.3 0C1828.7 0 1737.3 0 1645.8 0C1554.3 0 1462.7 0 1371.2 0C1279.7 0 1188.3 0 1097 0C1005.7 0 914.3 0 823 0C731.7 0 640.3 0 548.8 0C457.3 0 365.7 0 274.2 0C182.7 0 91.3 0 45.7 0L0 0Z" fill="#c62368"></path><path d="M0 328L45.7 331.7C91.3 335.3 182.7 342.7 274.2 326.2C365.7 309.7 457.3 269.3 548.8 272.5C640.3 275.7 731.7 322.3 823 321.7C914.3 321 1005.7 273 1097 264.2C1188.3 255.3 1279.7 285.7 1371.2 286.5C1462.7 287.3 1554.3 258.7 1645.8 257C1737.3 255.3 1828.7 280.7 1874.3 293.3L1920 306L1920 0L1874.3 0C1828.7 0 1737.3 0 1645.8 0C1554.3 0 1462.7 0 1371.2 0C1279.7 0 1188.3 0 1097 0C1005.7 0 914.3 0 823 0C731.7 0 640.3 0 548.8 0C457.3 0 365.7 0 274.2 0C182.7 0 91.3 0 45.7 0L0 0Z" fill="#a71766"></path><path d="M0 183L45.7 199C91.3 215 182.7 247 274.2 264.8C365.7 282.7 457.3 286.3 548.8 278.7C640.3 271 731.7 252 823 251.2C914.3 250.3 1005.7 267.7 1097 264.7C1188.3 261.7 1279.7 238.3 1371.2 239.2C1462.7 240 1554.3 265 1645.8 267.5C1737.3 270 1828.7 250 1874.3 240L1920 230L1920 0L1874.3 0C1828.7 0 1737.3 0 1645.8 0C1554.3 0 1462.7 0 1371.2 0C1279.7 0 1188.3 0 1097 0C1005.7 0 914.3 0 823 0C731.7 0 640.3 0 548.8 0C457.3 0 365.7 0 274.2 0C182.7 0 91.3 0 45.7 0L0 0Z" fill="#880f61"></path><path d="M0 187L45.7 177C91.3 167 182.7 147 274.2 137.2C365.7 127.3 457.3 127.7 548.8 131.5C640.3 135.3 731.7 142.7 823 155.3C914.3 168 1005.7 186 1097 184.7C1188.3 183.3 1279.7 162.7 1371.2 155C1462.7 147.3 1554.3 152.7 1645.8 146C1737.3 139.3 1828.7 120.7 1874.3 111.3L1920 102L1920 0L1874.3 0C1828.7 0 1737.3 0 1645.8 0C1554.3 0 1462.7 0 1371.2 0C1279.7 0 1188.3 0 1097 0C1005.7 0 914.3 0 823 0C731.7 0 640.3 0 548.8 0C457.3 0 365.7 0 274.2 0C182.7 0 91.3 0 45.7 0L0 0Z" fill="#690b59"></path><path d="M0 111L45.7 112.3C91.3 113.7 182.7 116.3 274.2 118.7C365.7 121 457.3 123 548.8 113.2C640.3 103.3 731.7 81.7 823 71C914.3 60.3 1005.7 60.7 1097 70.8C1188.3 81 1279.7 101 1371.2 107.5C1462.7 114 1554.3 107 1645.8 105.5C1737.3 104 1828.7 108 1874.3 110L1920 112L1920 0L1874.3 0C1828.7 0 1737.3 0 1645.8 0C1554.3 0 1462.7 0 1371.2 0C1279.7 0 1188.3 0 1097 0C1005.7 0 914.3 0 823 0C731.7 0 640.3 0 548.8 0C457.3 0 365.7 0 274.2 0C182.7 0 91.3 0 45.7 0L0 0Z" fill="#4a084e"></path></svg>