<svg id="visual" viewBox="0 0 900 600" width="900" height="600" xmlns="http://www.w3.org/2000/svg" version="1.1"><rect x="0" y="0" width="900" height="600" fill="#FFFFFF"></rect><path d="M0 74L21.5 74.7C43 75.3 86 76.7 128.8 79C171.7 81.3 214.3 84.7 257.2 86.7C300 88.7 343 89.3 385.8 86.7C428.7 84 471.3 78 514.2 77.2C557 76.3 600 80.7 642.8 84.2C685.7 87.7 728.3 90.3 771.2 88.5C814 86.7 857 80.3 878.5 77.2L900 74L900 0L878.5 0C857 0 814 0 771.2 0C728.3 0 685.7 0 642.8 0C600 0 557 0 514.2 0C471.3 0 428.7 0 385.8 0C343 0 300 0 257.2 0C214.3 0 171.7 0 128.8 0C86 0 43 0 21.5 0L0 0Z" fill="#c62368"></path><path d="M0 62L21.5 64.5C43 67 86 72 128.8 72.8C171.7 73.7 214.3 70.3 257.2 68.7C300 67 343 67 385.8 68C428.7 69 471.3 71 514.2 70.7C557 70.3 600 67.7 642.8 68C685.7 68.3 728.3 71.7 771.2 72.8C814 74 857 73 878.5 72.5L900 72L900 0L878.5 0C857 0 814 0 771.2 0C728.3 0 685.7 0 642.8 0C600 0 557 0 514.2 0C471.3 0 428.7 0 385.8 0C343 0 300 0 257.2 0C214.3 0 171.7 0 128.8 0C86 0 43 0 21.5 0L0 0Z" fill="#d03267"></path><path d="M0 68L21.5 67.8C43 67.7 86 67.3 128.8 67.3C171.7 67.3 214.3 67.7 257.2 67.2C300 66.7 343 65.3 385.8 65C428.7 64.7 471.3 65.3 514.2 64.2C557 63 600 60 642.8 60.2C685.7 60.3 728.3 63.7 771.2 64.7C814 65.7 857 64.3 878.5 63.7L900 63L900 0L878.5 0C857 0 814 0 771.2 0C728.3 0 685.7 0 642.8 0C600 0 557 0 514.2 0C471.3 0 428.7 0 385.8 0C343 0 300 0 257.2 0C214.3 0 171.7 0 128.8 0C86 0 43 0 21.5 0L0 0Z" fill="#da3f67"></path><path d="M0 41L21.5 42.7C43 44.3 86 47.7 128.8 48.5C171.7 49.3 214.3 47.7 257.2 47.5C300 47.3 343 48.7 385.8 48C428.7 47.3 471.3 44.7 514.2 45.3C557 46 600 50 642.8 50.5C685.7 51 728.3 48 771.2 47.2C814 46.3 857 47.7 878.5 48.3L900 49L900 0L878.5 0C857 0 814 0 771.2 0C728.3 0 685.7 0 642.8 0C600 0 557 0 514.2 0C471.3 0 428.7 0 385.8 0C343 0 300 0 257.2 0C214.3 0 171.7 0 128.8 0C86 0 43 0 21.5 0L0 0Z" fill="#e34c67"></path><path d="M0 42L21.5 41C43 40 86 38 128.8 36.5C171.7 35 214.3 34 257.2 33.7C300 33.3 343 33.7 385.8 33.3C428.7 33 471.3 32 514.2 31.3C557 30.7 600 30.3 642.8 31C685.7 31.7 728.3 33.3 771.2 35.2C814 37 857 39 878.5 40L900 41L900 0L878.5 0C857 0 814 0 771.2 0C728.3 0 685.7 0 642.8 0C600 0 557 0 514.2 0C471.3 0 428.7 0 385.8 0C343 0 300 0 257.2 0C214.3 0 171.7 0 128.8 0C86 0 43 0 21.5 0L0 0Z" fill="#eb5967"></path><path d="M0 27L21.5 26.3C43 25.7 86 24.3 128.8 23.5C171.7 22.7 214.3 22.3 257.2 22C300 21.7 343 21.3 385.8 22.5C428.7 23.7 471.3 26.3 514.2 27.5C557 28.7 600 28.3 642.8 28.5C685.7 28.7 728.3 29.3 771.2 29.3C814 29.3 857 28.7 878.5 28.3L900 28L900 0L878.5 0C857 0 814 0 771.2 0C728.3 0 685.7 0 642.8 0C600 0 557 0 514.2 0C471.3 0 428.7 0 385.8 0C343 0 300 0 257.2 0C214.3 0 171.7 0 128.8 0C86 0 43 0 21.5 0L0 0Z" fill="#f36567"></path><path d="M0 15L21.5 14.3C43 13.7 86 12.3 128.8 12.7C171.7 13 214.3 15 257.2 15.3C300 15.7 343 14.3 385.8 14C428.7 13.7 471.3 14.3 514.2 14.7C557 15 600 15 642.8 15C685.7 15 728.3 15 771.2 14.8C814 14.7 857 14.3 878.5 14.2L900 14L900 0L878.5 0C857 0 814 0 771.2 0C728.3 0 685.7 0 642.8 0C600 0 557 0 514.2 0C471.3 0 428.7 0 385.8 0C343 0 300 0 257.2 0C214.3 0 171.7 0 128.8 0C86 0 43 0 21.5 0L0 0Z" fill="#fa7268"></path></svg>
